# xmcd CD database file
#
# Track frame offsets:
#	150
#	13761
#	26507
#	53703
#	79693
#	107565
#	132515
#	160544
#	179701
#	198935
#	223076
#	245630
#	265267
#	298586
#	323240
#
# Disc length: 4599 seconds
#
# Revision: 0
# Processed by: cddbd v1.5.2PL0 Copyright (c) Steve Scherf et al.
# Submitted via: CDex 1.70beta2
#
DISCID=d711f50f
DTITLE=Shorty Rogers - Isn't It Romantic
DYEAR=1900
DGENRE=Jazz
TTITLE0=Over The Rainbow (Rec. 1951)
TTITLE1=Four Mothers (Rec. 1951)
TTITLE2=Moten Swing (Rec. 1955)
TTITLE3=Isn't It Romantic? (Rec. 1955)
TTITLE4=The Lady In Red (Rec. 1955)
TTITLE5=Dickie's Dream (Rec. 1955)
TTITLE6=My Heart Stood Still (Rec. 1955)
TTITLE7=Just A Few (Rec. 1954)
TTITLE8=Blues Way Down There (Rec. 1955)	
TTITLE9=Blues Way Up There (Rec. 1955)
TTITLE10=Not Really The Blues (Rec. 1955)
TTITLE11=Easy (Rec. 1955)
TTITLE12=Clickin' with Clax (Rec. 1956)
TTITLE13=Baklava Bridge (Rec. 1955)
TTITLE14=Twelfth Street Rag (Rec. 1955)
EXTD=
EXTT0=
EXTT1=
EXTT2=
EXTT3=
EXTT4=
EXTT5=
EXTT6=
EXTT7=
EXTT8=
EXTT9=
EXTT10=
EXTT11=
EXTT12=
EXTT13=
EXTT14=
PLAYORDER=
